<svg width="24" height="24" viewBox="0 0 24 24" fill="none" xmlns="http://www.w3.org/2000/svg">
<g id="majesticons:key">
<path id="Vector" fill-rule="evenodd" clip-rule="evenodd" d="M8.10033 9.94935C8.10056 8.72004 8.48152 7.52098 9.19085 6.51697C9.90018 5.51295 10.9031 4.75328 12.0617 4.34235C13.2202 3.93143 14.4777 3.88942 15.6611 4.22212C16.8445 4.55481 17.8959 5.24587 18.6706 6.20031C19.4454 7.15475 19.9055 8.32572 19.9878 9.55227C20.07 10.7788 19.7704 12.0007 19.13 13.0501C18.4897 14.0994 17.54 14.9247 16.4116 15.4124C15.2832 15.9002 14.0314 16.0265 12.8283 15.7739L11.5006 17.1017C11.1818 17.4206 10.7494 17.5997 10.2986 17.5998H9.80044C9.80044 18.0507 9.62132 18.4832 9.30249 18.802C8.98366 19.1208 8.55123 19.3 8.10033 19.3C8.10033 19.7508 7.92121 20.1833 7.60238 20.5021C7.28355 20.8209 6.85112 21.0001 6.40022 21.0001H4.70011C4.24921 21.0001 3.81678 20.8209 3.49795 20.5021C3.17912 20.1833 3 19.7508 3 19.3V17.1017C3.0001 16.6508 3.17928 16.2185 3.49813 15.8997L8.22614 11.1717C8.14228 10.7697 8.10013 10.36 8.10033 9.94935ZM14.0507 7.39918C13.8253 7.39918 13.6091 7.48874 13.4496 7.64816C13.2902 7.80757 13.2007 8.02379 13.2007 8.24924C13.2007 8.47468 13.2902 8.6909 13.4496 8.85032C13.6091 9.00973 13.8253 9.09929 14.0507 9.09929C14.2762 9.09929 14.4924 9.18885 14.6518 9.34827C14.8112 9.50768 14.9008 9.7239 14.9008 9.94935C14.9008 10.1748 14.9903 10.391 15.1497 10.5504C15.3092 10.7098 15.5254 10.7994 15.7508 10.7994C15.9763 10.7994 16.1925 10.7098 16.3519 10.5504C16.5113 10.391 16.6009 10.1748 16.6009 9.94935C16.6009 9.273 16.3322 8.62436 15.854 8.14611C15.3757 7.66786 14.7271 7.39918 14.0507 7.39918Z" fill="#343434"/>
</g>
</svg>
